<?xml version="1.0" standalone="no"?>
<!DOCTYPE svg PUBLIC "-//W3C//DTD SVG 20010904//EN"
 "http://www.w3.org/TR/2001/REC-SVG-20010904/DTD/svg10.dtd">
<svg version="1.0" xmlns="http://www.w3.org/2000/svg"
 width="256.000000pt" height="256.000000pt" viewBox="0 0 256.000000 256.000000"
 preserveAspectRatio="xMidYMid meet">
<metadata>
Created by potrace 1.16, written by Peter Selinger 2001-2019
</metadata>
<g transform="translate(0.000000,256.000000) scale(0.100000,-0.100000)"
fill="#000000" stroke="none">
<path d="M740 2298 c-25 -13 -55 -38 -67 -57 -49 -73 -16 -198 62 -235 l35
-17 0 -74 c0 -40 3 -80 6 -88 3 -8 50 -44 105 -78 54 -35 99 -70 99 -77 0 -10
-19 -12 -82 -10 -77 3 -83 2 -93 -20 -7 -12 -15 -25 -18 -28 -3 -4 -37 21 -74
53 -37 33 -81 63 -98 67 -102 24 -102 24 -109 65 -8 53 -59 106 -115 121 -80
21 -156 -13 -192 -86 -53 -110 22 -234 142 -234 61 0 93 13 128 50 27 30 28
30 78 19 40 -10 68 -27 130 -80 77 -67 78 -68 78 -116 l0 -48 67 -45 c39 -26
67 -52 68 -62 0 -17 -19 -18 -260 -18 l-260 0 -14 33 c-53 127 -242 127 -298
0 -52 -117 26 -233 155 -233 53 0 101 29 136 83 l24 37 259 0 c164 0 258 -4
258 -10 0 -5 -19 -24 -42 -40 -79 -56 -81 -59 -73 -93 14 -60 11 -66 -65 -132
-60 -52 -86 -67 -128 -76 -52 -12 -53 -12 -85 19 -58 56 -121 66 -191 32 -118
-57 -121 -231 -5 -290 100 -52 221 4 238 109 6 33 9 35 76 54 59 16 81 29 142
83 62 56 72 62 78 46 3 -11 14 -27 25 -37 16 -15 29 -16 99 -8 45 5 81 6 81 3
0 -3 -39 -30 -87 -60 -125 -78 -123 -76 -123 -170 0 -74 -2 -81 -22 -89 -30
-11 -78 -60 -89 -89 -17 -44 -10 -117 14 -153 70 -106 232 -97 286 15 25 51
26 84 6 134 -20 46 -48 77 -86 92 -28 12 -29 15 -29 74 l0 61 90 58 c77 49
110 65 110 55 0 -2 -7 -28 -15 -58 -28 -103 -25 -111 58 -158 80 -45 119 -62
147 -62 10 0 43 25 73 57 63 65 87 67 87 6 1 -84 66 -179 151 -222 113 -56
248 -51 346 14 63 42 101 91 124 158 16 49 20 53 66 68 77 26 107 45 156 99
62 68 81 129 75 234 l-5 81 43 38 c82 72 121 203 94 315 -14 59 -62 132 -110
167 -32 24 -33 27 -31 85 1 37 -4 83 -15 116 -30 95 -131 187 -230 208 -28 6
-32 12 -38 49 -16 101 -82 189 -174 234 -47 22 -71 27 -137 27 -68 1 -89 -3
-137 -27 -71 -35 -131 -102 -159 -177 -20 -57 -21 -57 -77 -73 l-57 -16 -50
50 c-30 28 -60 49 -72 49 -35 0 -176 -88 -187 -117 -3 -7 3 -41 14 -76 25 -77
25 -90 1 -111 -18 -16 -23 -14 -110 41 l-91 58 0 61 c0 59 1 61 34 77 49 23
86 76 92 133 8 67 -25 129 -86 161 -54 29 -94 29 -150 1z m111 -73 c28 -15 49
-49 49 -80 0 -7 -12 -27 -26 -44 -33 -40 -83 -43 -119 -6 -35 34 -33 78 4 116
33 33 50 35 92 14z m1027 -64 c77 -39 132 -128 132 -213 0 -49 -20 -70 -71
-77 -41 -6 -44 -8 -44 -36 0 -39 33 -52 93 -36 42 12 71 33 89 65 7 13 15 14
44 6 91 -25 169 -126 169 -217 l0 -43 -54 0 c-73 0 -106 -13 -106 -43 0 -37
17 -45 78 -40 51 4 63 1 112 -29 134 -82 159 -257 51 -362 l-39 -38 -38 25
c-62 40 -109 53 -129 37 -29 -24 -14 -53 44 -84 41 -22 57 -38 72 -70 54 -119
-12 -268 -138 -311 l-38 -13 -16 60 c-19 69 -38 93 -67 84 -30 -10 -33 -29
-15 -88 28 -94 2 -198 -64 -259 -51 -48 -92 -64 -169 -63 -90 0 -155 30 -199
93 l-30 43 -3 711 c-2 516 0 724 9 754 19 71 88 138 169 164 37 12 114 3 158
-20z m-611 -232 c58 -55 51 -54 146 -25 l47 15 0 -92 0 -93 -61 -29 c-227
-107 -317 -391 -192 -605 51 -86 181 -190 238 -190 12 0 15 -16 15 -95 l0 -95
-39 0 c-35 0 -44 -6 -83 -50 -23 -27 -49 -50 -57 -50 -11 0 -121 57 -121 63 0
1 7 24 15 51 23 74 19 107 -12 137 -16 13 -43 42 -61 62 -33 38 -34 38 -90 32
-31 -3 -67 -8 -78 -10 -18 -4 -26 5 -48 54 -14 32 -26 61 -26 63 0 3 27 24 59
47 l60 41 -5 93 c-7 132 -7 130 -74 173 -60 38 -61 40 -56 76 13 84 16 86 99
80 69 -4 75 -3 91 19 14 20 86 119 120 165 6 8 2 37 -11 84 l-21 71 40 30 c23
16 43 29 46 29 3 0 29 -23 59 -51z m-859 -115 c46 -52 10 -134 -58 -134 -43 0
-65 14 -80 49 -17 42 -5 78 33 102 39 24 73 18 105 -17z m1052 -499 c0 -179
-3 -325 -8 -325 -13 0 -85 51 -124 88 -20 19 -49 62 -65 96 -24 52 -28 73 -28
146 1 73 5 93 29 140 15 30 42 70 59 89 32 33 113 91 129 91 4 0 8 -146 8
-325z m-1199 6 c37 -38 38 -79 3 -115 -36 -35 -77 -34 -115 3 -17 18 -29 40
-29 56 0 35 50 85 85 85 16 0 38 -12 56 -29z m158 -476 c49 -25 57 -90 16
-130 -64 -65 -165 8 -129 93 20 48 64 63 113 37z m515 -386 c14 -17 26 -37 26
-45 0 -28 -28 -70 -55 -82 -37 -17 -50 -15 -84 14 -24 20 -31 34 -31 60 0 79
93 114 144 53z"/>
</g>
</svg>
