<svg id="Layer_1" data-name="Layer 1" xmlns="http://www.w3.org/2000/svg" viewBox="0 0 219.74 257.79"><defs><style>.cls-1{fill:#dc2227;}.cls-2{fill:#e8bc20;}.cls-3{fill:#ee4638;}.cls-4{fill:#f4bdcd;}.cls-5{fill:#ffdfb4;}.cls-6{fill:#7a554b;}.cls-7{fill:#f9ce87;}.cls-8{fill:#df5850;}.cls-9{font-size:22.59px;fill:#42494a;stroke:#42494a;stroke-miterlimit:10;font-family:LucidaCalligraphy-Italic, Lucida Calligraphy;font-style:italic;}.cls-10{fill:#8dc54a;}.cls-11{fill:#ef4437;}.cls-12{fill:#7a564e;}.cls-13{fill:#fabf17;}.cls-14{fill:#f47820;}.cls-15{fill:#28211a;}.cls-16{fill:#fefcfd;}.cls-17{fill:none;stroke:#231f20;stroke-linecap:round;stroke-linejoin:round;stroke-width:5.5px;}</style></defs><path class="cls-1" d="M224.22,512.75l-.24-.11-.4-.14-60.05-60a.64.64,0,0,0,0-.07V363.85a2.72,2.72,0,0,0,.11-.25,3.52,3.52,0,0,0,.15-.42l59.81-59.81.4-.14.45-.22h88.1l.24.11.07,0,60,60,.15.42a4,4,0,0,0,.23.46v88.09l-.14.3-60.27,60.28-.06,0Z" transform="translate(-158.51 -298.51)"/><path class="cls-2" d="M310.84,307.51l57.91,57.91v85L311,508.25H225.69L168,450.56V365.31l57.79-57.8h85m3.66-9H222.26v.56l-.37-.37-62.8,62.8.37.38H159v92.23h.34l-.26.26,62.8,62.8.37-.37v.45H314.5v-.34l.26.26,62.8-62.8-.26-.26h.45V361.88h-.57l.38-.38-62.8-62.8-.26.26v-.45Z" transform="translate(-158.51 -298.51)"/><ellipse class="cls-3" cx="109.9" cy="134.09" rx="14.14" ry="13.06"/><ellipse class="cls-4" cx="88.89" cy="143.52" rx="11.92" ry="13.06"/><ellipse class="cls-4" cx="109.9" cy="143.52" rx="11.92" ry="13.06"/><ellipse class="cls-4" cx="130.99" cy="143.52" rx="11.92" ry="13.06"/><rect class="cls-5" x="66.22" y="139.83" width="87.44" height="67" rx="10.17"/><rect class="cls-6" x="66.22" y="139.83" width="87.44" height="67" rx="3.49"/><rect class="cls-7" x="66.15" y="182.13" width="87.44" height="24.7" rx="4.01"/><path class="cls-5" d="M312.17,480.65H224.73V445.16h87.44Z" transform="translate(-158.51 -298.51)"/><rect class="cls-8" x="66.22" y="177.43" width="87.44" height="17.32"/><rect class="cls-8" x="66.22" y="163.11" width="87.44" height="5.96"/><path class="cls-5" d="M283.5,451.41" transform="translate(-158.51 -298.51)"/><text class="cls-9" transform="translate(0.5 249.95) scale(1.09 1)">Foodfair@Anika</text><path class="cls-6" d="M237.1,438.61l.45.1a10.23,10.23,0,0,0,2,.42q8.34,0,16.68,0a10.85,10.85,0,0,0,1.68-.26h24.9a5.08,5.08,0,0,0,1.24.26q8.51,0,17-.07c3.54,0,4.62-.32,5.91.11,2.67.89,4.08,3.27,2.87,4.18-1.39,1-6.93-.6-7.4.66-.11.3.2.5,0,.78-.41.74-2.62-.54-4.78.37a3.37,3.37,0,0,0-1.72,1.39c-.55,1,0,1.73-.66,2.64a2.24,2.24,0,0,1-1.79,1,2.42,2.42,0,0,1-1.71-1.08c-.73-1-.3-1.63-.9-2.32a2.64,2.64,0,0,0-3-.52c-1.08.59-1.22,2.1-1.34,3.33-.27,2.9.91,4,0,5.8a2.84,2.84,0,0,1-1.54,1.51,3,3,0,0,1-2.95-.86c-1.3-1.4,0-3.21-.86-6.39a6.59,6.59,0,0,0-1.53-3.19c-2.23-2.24-5.48-.65-11.94-2.25-1-.24-1.73-.49-2.22-.65a13.63,13.63,0,0,0-3.36-.5s-.77-.09-1.57-.1c-1.32,0-2.94.22-10.52,1a120.75,120.75,0,0,1-22.8.07l-.84-.11a6.43,6.43,0,0,0,0-1.75c-.49-2,1.89-2.78,5-2.94,1.06-.06,1.6.08,2.43,0a6.91,6.91,0,0,0,1-.09A10.09,10.09,0,0,0,237.1,438.61Z" transform="translate(-158.51 -298.51)"/><ellipse class="cls-10" cx="147.74" cy="56.53" rx="17.31" ry="18.2"/><ellipse class="cls-10" cx="110.3" cy="46.47" rx="17.31" ry="18.2"/><ellipse class="cls-10" cx="74.19" cy="56.53" rx="17.31" ry="18.2"/><ellipse class="cls-10" cx="208.72" cy="376.97" rx="13.02" ry="17.31" transform="translate(-368.14 181.63) rotate(-74.88)"/><ellipse class="cls-10" cx="329.32" cy="377.31" rx="17.31" ry="13.02" transform="translate(-268.88 -160.96) rotate(-20.28)"/><ellipse class="cls-11" cx="128.79" cy="48.84" rx="17.31" ry="18.2"/><ellipse class="cls-12" cx="47.11" cy="97" rx="17.31" ry="18.2"/><ellipse class="cls-12" cx="169.34" cy="96.68" rx="17.31" ry="16.11"/><ellipse class="cls-11" cx="91.5" cy="48.84" rx="17.31" ry="18.2"/><ellipse class="cls-11" cx="61.91" cy="68.37" rx="17.31" ry="18.2"/><ellipse class="cls-11" cx="158.69" cy="68.37" rx="17.31" ry="18.2"/><path class="cls-13" d="M343.47,409.51v.24a4.38,4.38,0,0,1-4.39,4.34H197.82a4.38,4.38,0,0,1-4.39-4.34v-.24c0-38.49,33.58-69.68,75-69.68S343.47,371,343.47,409.51Z" transform="translate(-158.51 -298.51)"/><circle class="cls-14" cx="160.05" cy="88.11" r="2.76"/><circle class="cls-14" cx="151.5" cy="100.53" r="2.76"/><circle class="cls-14" cx="143.04" cy="88.11" r="2.76"/><circle class="cls-14" cx="76.64" cy="88.11" r="2.76"/><circle class="cls-14" cx="68.1" cy="100.53" r="2.76"/><circle class="cls-14" cx="59.63" cy="88.11" r="2.76"/><circle class="cls-15" cx="88.05" cy="64.31" r="7.78"/><circle class="cls-16" cx="88.92" cy="61.26" r="4.56"/><circle class="cls-15" cx="134" cy="64.31" r="7.78"/><circle class="cls-16" cx="133.19" cy="61.26" r="4.56"/><path class="cls-17" d="M259.45,373.69c1,4.31,5.84,7.31,11,7,4.88-.27,9-3.39,9.69-7.47" transform="translate(-158.51 -298.51)"/></svg>